<svg width="116" height="119" viewBox="0 0 116 119" fill="none" xmlns="http://www.w3.org/2000/svg">
<path d="M81.6079 59.2665C81.5005 58.1511 81.0551 57.0683 80.2717 56.018C79.4883 54.9677 78.4885 53.9723 77.2722 53.0319C76.0527 52.0578 74.6892 51.1827 73.1817 50.4068C71.671 49.5971 70.1548 48.9073 68.633 48.3375C67.0775 47.7709 65.5873 47.3515 64.1625 47.0794C62.7038 46.8104 61.4506 46.7264 60.4028 46.8273C60.4972 47.8075 60.8369 48.6788 61.422 49.4412C61.9734 50.2068 62.6888 50.9055 63.5683 51.5372C64.4478 52.1688 65.4272 52.7739 66.5062 53.3522C67.5483 53.9 68.5903 54.4478 69.6323 54.9957C70.6405 55.5467 71.6182 56.1348 72.5654 56.76C73.5125 57.3852 74.2955 58.0773 74.9144 58.8365C74.958 58.9346 74.9983 58.9989 75.0354 59.0295C75.0451 59.1309 75.0549 59.2323 75.0646 59.3337C75.0744 59.4351 75.0842 59.5365 75.0939 59.6379C75.0699 59.7425 75.0442 59.8303 75.0169 59.9011C74.9526 59.9415 74.8168 60.1251 74.6095 60.4521C74.3684 60.7823 74.1835 60.9877 74.0548 61.0684C73.8988 61.2198 73.5345 61.5108 72.9619 61.9411C72.3555 62.3748 71.6728 62.901 70.9136 63.5199C70.1207 64.1421 69.2956 64.7844 68.4384 65.4469C67.5473 66.1126 66.7222 66.7549 65.9631 67.3738C65.204 67.9927 64.5397 68.5343 63.9704 68.9984C63.3978 69.4288 62.9997 69.723 62.7761 69.881C62.7118 69.9213 62.5591 70.1066 62.318 70.4368C62.0398 70.7365 61.8871 70.9217 61.8598 70.9926C61.8696 71.094 61.8624 71.197 61.8384 71.3017C61.8416 71.3355 61.8465 71.3862 61.853 71.4538C61.8257 71.5246 61.8137 71.577 61.817 71.6108C61.8202 71.6446 61.842 71.6936 61.8823 71.758C61.8856 71.7918 61.8888 71.8256 61.8921 71.8594C61.9356 71.9575 61.9607 72.0404 61.9672 72.108C62.0478 72.2367 62.2194 72.4248 62.4821 72.6724C62.7447 72.9201 63.0057 73.1508 63.2651 73.3646C63.4874 73.5479 63.7081 73.7142 63.9272 73.8637C64.1463 74.0132 64.2896 74.0847 64.3572 74.0782C64.898 74.0261 65.7234 73.7419 66.8336 73.2257C67.9067 72.6789 69.1019 71.9839 70.4194 71.1406C71.703 70.3007 73.0276 69.3544 74.3931 68.3019C75.7248 67.2526 76.9519 66.1793 78.0743 65.0819C79.1629 63.9878 80.0503 62.9301 80.7366 61.9089C81.3891 60.8909 81.6795 60.0101 81.6079 59.2665Z" fill="#FFFDFD"/>
<path d="M56.7374 58.1817C56.7276 58.0803 56.6928 57.8961 56.633 57.6289C56.5699 57.328 56.5367 57.1606 56.5334 57.1268C55.9926 57.1789 55.2627 57.2151 54.3436 57.2353C53.3874 57.2251 52.3484 57.2398 51.2265 57.2796C50.1014 57.2856 48.9424 57.2949 47.7497 57.3074C46.5231 57.3232 45.3674 57.3662 44.2826 57.4366C43.1977 57.5069 42.199 57.586 41.2864 57.6739C40.3738 57.7618 39.6689 57.8808 39.1717 58.031C38.5633 58.0896 38.1473 58.1979 37.9237 58.3559C37.6663 58.5171 37.5751 58.9864 37.6499 59.7638C38.729 60.3422 40.0453 60.7271 41.5988 60.9187C43.1491 61.0764 44.7251 61.1464 46.3267 61.1286C47.9283 61.1109 49.4896 61.0287 51.0105 60.8823C52.4977 60.7391 53.7161 60.6388 54.6658 60.5815C55.5849 60.5612 56.1754 60.3167 56.4373 59.8481C56.6992 59.3794 56.7992 58.8239 56.7374 58.1817Z" fill="#FFFDFD"/>
<path d="M27.3166 77.3295C15.9235 63.2543 40.1904 27.5676 69.0849 32.0246C104.568 41.9307 99.4934 76.1222 85.6207 77.8576" stroke="#FFFDFD" stroke-width="3"/>
<path d="M28.8436 77.0917C39.8608 90.3404 62.3191 93.913 79.0788 84.7338C95.8385 75.5547 100.159 57.3157 89.1414 44.0671C78.1241 30.8184 55.6659 27.2458 38.9062 36.425C22.1465 45.6041 17.8263 63.8431 28.8436 77.0917Z" stroke="#FFFDFD" stroke-width="3"/>
</svg>
