<svg width="116" height="119" viewBox="0 0 116 119" fill="none" xmlns="http://www.w3.org/2000/svg">
<path d="M34.0852 59.2665C34.1926 58.1511 34.638 57.0683 35.4214 56.018C36.2048 54.9677 37.2047 53.9723 38.4209 53.0319C39.6405 52.0578 41.004 51.1827 42.5114 50.4068C44.0221 49.5971 45.5384 48.9073 47.0601 48.3375C48.6156 47.7709 50.1058 47.3515 51.5307 47.0794C52.9893 46.8104 54.2425 46.7264 55.2903 46.8273C55.1959 47.8075 54.8562 48.6788 54.2711 49.4412C53.7198 50.2068 53.0044 50.9055 52.1248 51.5372C51.2453 52.1688 50.266 52.7739 49.1869 53.3522C48.1449 53.9 47.1028 54.4478 46.0608 54.9957C45.0526 55.5467 44.0749 56.1348 43.1278 56.76C42.1806 57.3852 41.3976 58.0773 40.7787 58.8365C40.7351 58.9346 40.6948 58.9989 40.6578 59.0295C40.648 59.1309 40.6382 59.2323 40.6285 59.3337C40.6187 59.4351 40.609 59.5365 40.5992 59.6379C40.6232 59.7425 40.6489 59.8303 40.6762 59.9011C40.7405 59.9415 40.8764 60.1251 41.0837 60.4521C41.3248 60.7823 41.5097 60.9877 41.6384 61.0684C41.7943 61.2198 42.1586 61.5108 42.7312 61.9411C43.3376 62.3748 44.0204 62.901 44.7795 63.5199C45.5724 64.1421 46.3975 64.7844 47.2548 65.4469C48.1458 66.1126 48.9709 66.7549 49.73 67.3738C50.4892 67.9927 51.1534 68.5343 51.7227 68.9984C52.2953 69.4288 52.6934 69.723 52.917 69.881C52.9813 69.9213 53.1341 70.1066 53.3752 70.4368C53.6533 70.7365 53.8061 70.9217 53.8333 70.9926C53.8236 71.094 53.8307 71.197 53.8548 71.3017C53.8515 71.3355 53.8466 71.3862 53.8401 71.4538C53.8674 71.5246 53.8794 71.577 53.8762 71.6108C53.8729 71.6446 53.8511 71.6936 53.8108 71.758C53.8076 71.7918 53.8043 71.8256 53.8011 71.8594C53.7575 71.9575 53.7325 72.0404 53.7259 72.108C53.6453 72.2367 53.4737 72.4248 53.2111 72.6724C52.9484 72.9201 52.6874 73.1508 52.428 73.3646C52.2057 73.5479 51.985 73.7142 51.766 73.8637C51.5469 74.0132 51.4035 74.0847 51.3359 74.0782C50.7952 74.0261 49.9697 73.7419 48.8596 73.2257C47.7865 72.6789 46.5912 71.9839 45.2738 71.1406C43.9901 70.3007 42.6655 69.3544 41.3 68.3019C39.9683 67.2526 38.7413 66.1793 37.6189 65.0819C36.5302 63.9878 35.6428 62.9301 34.9565 61.9089C34.3041 60.8909 34.0136 60.0101 34.0852 59.2665Z" fill="#FFFDFD"/>
<path d="M58.9558 58.1817C58.9655 58.0803 59.0003 57.8961 59.0602 57.6289C59.1233 57.328 59.1564 57.1606 59.1597 57.1268C59.7005 57.1789 60.4304 57.2151 61.3495 57.2353C62.3057 57.2251 63.3447 57.2398 64.4666 57.2796C65.5918 57.2856 66.7507 57.2949 67.9435 57.3074C69.17 57.3232 70.3257 57.3662 71.4106 57.4366C72.4954 57.5069 73.4941 57.586 74.4067 57.6739C75.3193 57.7618 76.0242 57.8808 76.5215 58.031C77.1299 58.0896 77.5458 58.1979 77.7694 58.3559C78.0268 58.5171 78.1181 58.9864 78.0432 59.7638C76.9641 60.3422 75.6478 60.7271 74.0943 60.9187C72.544 61.0764 70.9681 61.1464 69.3665 61.1286C67.7649 61.1109 66.2036 61.0287 64.6826 60.8823C63.1954 60.7391 61.977 60.6388 61.0273 60.5815C60.1082 60.5612 59.5177 60.3167 59.2559 59.8481C58.994 59.3794 58.8939 58.8239 58.9558 58.1817Z" fill="#FFFDFD"/>
<path d="M88.3765 77.3295C99.7697 63.2543 75.5027 27.5676 46.6083 32.0246C11.1254 41.9307 16.1997 76.1222 30.0724 77.8576" stroke="#FFFDFD" stroke-width="3"/>
<path d="M86.8496 77.0917C75.8323 90.3404 53.3741 93.913 36.6143 84.7338C19.8546 75.5547 15.5344 57.3157 26.5517 44.0671C37.569 30.8184 60.0272 27.2458 76.7869 36.425C93.5466 45.6041 97.8668 63.8431 86.8496 77.0917Z" stroke="#FFFDFD" stroke-width="3"/>
</svg>
