<svg width="198" height="109" viewBox="0 0 198 109" fill="none" xmlns="http://www.w3.org/2000/svg">
<mask id="path-1-inside-1_355_1057" fill="white">
<path d="M8.94264 94.2384V107.823H5.19525V94.2384H0V90.7891H14.1166V94.2384H8.94264ZM19.1415 107.823V90.7891H32.0019V94.132H22.8676V97.5813H30.8947V100.924H22.8676V104.501H32.1296V107.844H19.1415V107.823ZM45.7352 108.121C40.7103 108.121 36.9842 104.246 36.9842 99.3485V99.3059C36.9842 94.4513 40.6464 90.491 45.863 90.491C49.0781 90.491 50.9943 91.5556 52.5912 93.1312L50.2065 95.8779C48.8864 94.6855 47.545 93.9616 45.8417 93.9616C42.9673 93.9616 40.9019 96.3463 40.9019 99.2633V99.3059C40.9019 102.223 42.9247 104.671 45.8417 104.671C47.7792 104.671 48.9929 103.884 50.313 102.67L52.6977 105.076C50.973 106.95 49.0142 108.121 45.7352 108.121V108.121ZM68.6028 107.823V100.988H61.6829V107.823H57.9355V90.7891H61.6829V97.5387H68.6028V90.7891H72.3502V107.823H68.6028ZM90.9594 107.823L82.6981 96.9851V107.823H78.9933V90.7891H82.4426L90.4271 101.286V90.7891H94.1319V107.823H90.9594ZM108.632 108.121C103.373 108.121 99.604 104.203 99.604 99.3485V99.3059C99.604 94.4513 103.437 90.491 108.696 90.491C113.955 90.491 117.723 94.4088 117.723 99.2633V99.3059C117.702 104.16 113.891 108.121 108.632 108.121ZM113.784 99.3059C113.784 96.3889 111.634 93.9403 108.632 93.9403C105.608 93.9403 103.522 96.325 103.522 99.242V99.2846C103.522 102.202 105.672 104.65 108.674 104.65C111.677 104.65 113.784 102.266 113.784 99.3485V99.3059ZM123.089 107.823V90.7891H126.836V104.416H135.332V107.823H123.089ZM147.979 108.121C142.72 108.121 138.952 104.203 138.952 99.3485V99.3059C138.952 94.4513 142.784 90.491 148.043 90.491C153.302 90.491 157.071 94.4088 157.071 99.2633V99.3059C157.05 104.16 153.239 108.121 147.979 108.121ZM153.132 99.3059C153.132 96.3889 150.982 93.9403 147.979 93.9403C144.956 93.9403 142.869 96.325 142.869 99.242V99.2846C142.869 102.202 145.02 104.65 148.022 104.65C151.024 104.65 153.132 102.266 153.132 99.3485V99.3059ZM170.549 108.121C165.247 108.121 161.585 104.395 161.585 99.3485V99.3059C161.585 94.4513 165.354 90.491 170.528 90.491C173.594 90.491 175.446 91.3214 177.213 92.8331L174.85 95.6863C173.53 94.6004 172.359 93.9616 170.4 93.9616C167.674 93.9616 165.503 96.3676 165.503 99.2633V99.3059C165.503 102.415 167.653 104.714 170.655 104.714C172.018 104.714 173.232 104.373 174.19 103.692V101.265H170.421V98.0284H177.831V105.438C176.064 106.907 173.658 108.121 170.549 108.121V108.121ZM191.458 101.031V107.823H187.71V101.094L181.152 90.7678H185.538L189.605 97.6026L193.736 90.7678H197.994L191.458 101.031Z"/>
</mask>
<path d="M8.94264 94.2384V107.823H5.19525V94.2384H0V90.7891H14.1166V94.2384H8.94264ZM19.1415 107.823V90.7891H32.0019V94.132H22.8676V97.5813H30.8947V100.924H22.8676V104.501H32.1296V107.844H19.1415V107.823ZM45.7352 108.121C40.7103 108.121 36.9842 104.246 36.9842 99.3485V99.3059C36.9842 94.4513 40.6464 90.491 45.863 90.491C49.0781 90.491 50.9943 91.5556 52.5912 93.1312L50.2065 95.8779C48.8864 94.6855 47.545 93.9616 45.8417 93.9616C42.9673 93.9616 40.9019 96.3463 40.9019 99.2633V99.3059C40.9019 102.223 42.9247 104.671 45.8417 104.671C47.7792 104.671 48.9929 103.884 50.313 102.67L52.6977 105.076C50.973 106.95 49.0142 108.121 45.7352 108.121V108.121ZM68.6028 107.823V100.988H61.6829V107.823H57.9355V90.7891H61.6829V97.5387H68.6028V90.7891H72.3502V107.823H68.6028ZM90.9594 107.823L82.6981 96.9851V107.823H78.9933V90.7891H82.4426L90.4271 101.286V90.7891H94.1319V107.823H90.9594ZM108.632 108.121C103.373 108.121 99.604 104.203 99.604 99.3485V99.3059C99.604 94.4513 103.437 90.491 108.696 90.491C113.955 90.491 117.723 94.4088 117.723 99.2633V99.3059C117.702 104.16 113.891 108.121 108.632 108.121ZM113.784 99.3059C113.784 96.3889 111.634 93.9403 108.632 93.9403C105.608 93.9403 103.522 96.325 103.522 99.242V99.2846C103.522 102.202 105.672 104.65 108.674 104.65C111.677 104.65 113.784 102.266 113.784 99.3485V99.3059ZM123.089 107.823V90.7891H126.836V104.416H135.332V107.823H123.089ZM147.979 108.121C142.72 108.121 138.952 104.203 138.952 99.3485V99.3059C138.952 94.4513 142.784 90.491 148.043 90.491C153.302 90.491 157.071 94.4088 157.071 99.2633V99.3059C157.05 104.16 153.239 108.121 147.979 108.121ZM153.132 99.3059C153.132 96.3889 150.982 93.9403 147.979 93.9403C144.956 93.9403 142.869 96.325 142.869 99.242V99.2846C142.869 102.202 145.02 104.65 148.022 104.65C151.024 104.65 153.132 102.266 153.132 99.3485V99.3059ZM170.549 108.121C165.247 108.121 161.585 104.395 161.585 99.3485V99.3059C161.585 94.4513 165.354 90.491 170.528 90.491C173.594 90.491 175.446 91.3214 177.213 92.8331L174.85 95.6863C173.53 94.6004 172.359 93.9616 170.4 93.9616C167.674 93.9616 165.503 96.3676 165.503 99.2633V99.3059C165.503 102.415 167.653 104.714 170.655 104.714C172.018 104.714 173.232 104.373 174.19 103.692V101.265H170.421V98.0284H177.831V105.438C176.064 106.907 173.658 108.121 170.549 108.121V108.121ZM191.458 101.031V107.823H187.71V101.094L181.152 90.7678H185.538L189.605 97.6026L193.736 90.7678H197.994L191.458 101.031Z" stroke="#C6205C" stroke-width="2" mask="url(#path-1-inside-1_355_1057)"/>
<path d="M65.4729 44.2022C65.0258 47.2044 64.1741 50.1427 62.8327 53.0384C60.8739 57.4671 58.1485 61.7255 54.4863 65.3026C47.5877 72.2863 37.2823 76.7151 26.7428 76.7151H0.0852051V61.3848H26.7215C33.0239 61.3848 39.0709 59.0001 43.1589 54.7417C46.1185 51.7396 48.1838 48.0773 49.2484 44.2022H65.4729ZM65.4729 32.5129C65.0258 29.5107 64.1741 26.5724 62.8327 23.6767C60.8739 19.248 58.1485 14.9896 54.4863 11.4125C47.5877 4.42874 37.2823 0 26.7215 0H0.0852051V15.3302H26.7215C33.0239 15.3302 39.0709 17.7149 43.1589 21.9733C46.1185 24.9755 48.1838 28.6377 49.2484 32.5129H65.4729ZM98.9227 51.1008L78.5675 76.7151H58.3827L88.8515 38.3682L58.404 0H78.5888L98.944 25.593L119.278 0H139.463L108.972 38.3682L139.441 76.7151H119.257L98.9227 51.1008ZM148.597 44.2022C149.662 48.0773 151.727 51.7396 154.686 54.7417C158.774 59.0001 164.821 61.3848 171.124 61.3848H197.76V76.7151H171.124C160.563 76.7151 150.258 72.2863 143.38 65.3026C139.718 61.7255 136.993 57.4671 135.034 53.0384C133.693 50.1427 132.841 47.2044 132.394 44.2022H148.597ZM148.597 32.5129C149.662 28.6377 151.727 24.9755 154.686 21.9733C158.774 17.7149 164.821 15.3302 171.124 15.3302H197.76V0H171.124C160.563 0 150.258 4.42874 143.38 11.4125C139.718 14.9896 136.993 19.248 135.034 23.6767C133.693 26.5724 132.841 29.5107 132.394 32.5129H148.597Z" fill="#C6205C"/>
</svg>
