<svg width="403" height="108" viewBox="0 0 403 108" fill="none" xmlns="http://www.w3.org/2000/svg">
<path fill-rule="evenodd" clip-rule="evenodd" d="M96.4714 0C90.5197 0 85.7114 4.82201 85.7114 10.7738C85.7114 16.7117 90.5197 21.52 96.4714 21.52C102.396 21.52 107.218 16.7117 107.218 10.7738C107.218 4.82201 102.396 0 96.4714 0Z" fill="#C6205C"/>
<path fill-rule="evenodd" clip-rule="evenodd" d="M72.8711 45.2718L86.3177 27.5682C87.0065 26.6726 87.0616 25.4327 86.4554 24.4683L80.7517 15.3065C80.2419 14.5074 79.3602 14.0114 78.4095 14.0252L53.7759 14.1905H40.2605C39.1997 14.1905 38.7313 15.5131 39.5579 16.1744L43.3466 19.233C43.8702 19.6601 44.5039 19.9494 45.179 20.0734L68.6415 24.4958L39.613 55.6874L1.42264 61.1156C0.100035 61.2947 -0.46483 62.9066 0.444465 63.871L4.17808 67.8802C4.90827 68.6655 5.95534 69.1064 7.02996 69.0926L43.9115 68.4864C45.2754 68.4588 46.6118 68.0731 47.7829 67.3704L56.614 61.9836L75.2546 76.794C75.9985 77.3727 76.4807 78.2131 76.6047 79.1499L80.1455 105.285C80.3108 106.511 81.3716 107.434 82.6116 107.434H84.5128C85.8768 107.434 86.9927 106.332 86.9927 104.955L87.103 75.9536C87.1167 74.4519 86.6345 72.9915 85.739 71.7929L69.4682 49.8596L72.8711 45.2718Z" fill="#C6205C"/>
<path d="M142.914 29.1623H142.414V29.6623V47.1318V47.6318H142.914H157.463C160.283 47.6318 162.811 46.7747 164.642 45.1633C166.48 43.5457 167.579 41.1981 167.579 38.3006C167.579 35.4875 166.476 33.1882 164.639 31.5987C162.809 30.0155 160.282 29.1623 157.463 29.1623H142.914ZM142.414 59.2557V81.7636H129.623V18.0246H159.406C166.038 18.0246 171.365 20.1936 175.031 23.8017C178.698 27.4101 180.742 32.4946 180.742 38.397C180.742 49.4901 173.655 55.5227 166.869 57.1157L166.205 57.2715L166.553 57.8577L180.75 81.7636H166.01L153.437 59.0138L153.294 58.7557H152.999H142.914H142.414V59.2557Z" stroke="#C6205C"/>
<path d="M205.311 70.6259H236.829V81.7636H192.034V18.0246H236.829V29.1623H205.311H204.811V29.6623V43.2466V43.7466H205.311H236.154V54.8705H205.311H204.811V55.3705V70.1259V70.6259H205.311Z" stroke="#C6205C"/>
<path d="M261.88 29.1623H261.38V29.6623V47.0353V47.5353H261.88H276.443C279.263 47.5353 281.786 46.6784 283.613 45.0932C285.446 43.502 286.546 41.203 286.546 38.397C286.546 35.539 285.448 33.2155 283.614 31.6124C281.787 30.0156 279.262 29.1623 276.443 29.1623H261.88ZM261.38 59.1592V81.7636H248.603V18.0246H278.385C285.301 18.0246 290.6 20.3581 294.171 24.0463C297.746 27.7384 299.626 32.8261 299.626 38.397C299.626 43.91 297.724 48.9704 294.136 52.6501C290.552 56.3261 285.252 58.6592 278.385 58.6592H261.88H261.38V59.1592Z" stroke="#C6205C"/>
<path d="M322.059 70.6259H348.921V81.7636H308.672V18.0246H321.559V70.1259V70.6259H322.059Z" stroke="#C6205C"/>
<path d="M377.742 55.7701V81.7636H364.965V55.7701V55.6219L364.884 55.4977L340.546 18.0246H355.066L370.928 43.7023L371.354 44.3908L371.779 43.7023L387.642 18.0246H402.081L377.823 55.4984L377.742 55.6224V55.7701Z" stroke="#C6205C"/>
</svg>
