<svg width="338" height="92" viewBox="0 0 338 92" fill="none" xmlns="http://www.w3.org/2000/svg">
<rect width="338" height="92" fill="#E5E5E5"/>
<rect width="1512" height="8335" transform="translate(-792 -1728)" fill="#282323"/>
<g clip-path="url(#clip0_0_1)">
<path fill-rule="evenodd" clip-rule="evenodd" d="M42.25 68.9967H5.0759C3.67071 68.9967 2.40071 69.575 1.48303 70.5111C0.565354 71.443 0 72.7285 0 74.1514V83.0087C0 84.4274 0.561258 85.7129 1.47074 86.6407C2.39251 87.5809 3.66661 88.1634 5.0759 88.1634H42.25V68.9967ZM106.075 70.5235C105.157 69.5875 103.879 68.9967 102.47 68.9967H65.2955V88.1634H102.47C103.879 88.1634 105.153 87.5809 106.075 86.6365C106.984 85.7088 107.545 84.4232 107.545 83.0087V74.1514C107.545 72.7368 106.984 71.4555 106.075 70.5235ZM106.075 36.027C105.157 35.0831 103.879 34.4967 102.47 34.4967H65.2955V53.6634H102.47C103.879 53.6634 105.153 53.0729 106.075 52.133C106.984 51.2015 107.545 49.9207 107.545 48.5068V39.6491C107.545 38.2394 106.984 36.9586 106.075 36.027ZM42.25 34.4967L5.0759 34.5009C3.67071 34.5009 2.40071 35.0789 1.48303 36.0146C0.565354 36.9461 0 38.2311 0 39.6491V48.5068C0 49.9207 0.561258 51.2057 1.47074 52.1372C2.39251 53.077 3.66661 53.6634 5.0759 53.6634H42.25V34.4967ZM102.377 19.1634H5.16809C3.7332 19.1634 2.43597 18.5809 1.49745 17.6407C0.571451 16.7088 0 15.4274 0 14.0087V5.15136C0 3.72853 0.575622 2.44298 1.50579 1.51107C2.44431 0.574991 3.73737 -0.0032959 5.16809 -0.0032959H102.377C103.812 -0.0032959 105.114 0.579151 106.048 1.52355C106.974 2.45546 107.545 3.73685 107.545 5.15136V14.0087C107.545 15.4232 106.974 16.7046 106.048 17.6365C105.109 18.5809 103.812 19.1634 102.377 19.1634Z" fill="#C6205C"/>
<mask id="path-2-inside-1_0_1" fill="white">
<path fill-rule="evenodd" clip-rule="evenodd" d="M327.849 -0.00012207H322.027C314.58 -0.00012207 314.11 0.822412 313.535 2.11555L302.013 30.094C298.172 39.3792 294.21 49.3724 292.699 54.5449C291.301 49.3724 288.745 42.4361 283.389 29.6234L271.87 2.11555C271.17 0.470482 268.261 -0.00012207 261.973 -0.00012207H255.458C249.057 -0.00012207 247.773 0.589156 247.773 1.88229V86.2841C247.773 87.8146 249.057 88.1665 255.689 88.1665H259.299C265.814 88.1665 267.673 87.8146 267.673 86.2841V36.2078H268.143C268.143 36.2078 268.722 38.5567 269.658 40.6724L282.927 72.0596C283.506 73.4714 284.207 74.0648 290.373 74.0648H294.331C300.611 74.0648 301.081 73.5901 301.664 72.0596L313.762 41.8509C314.929 39.0273 315.743 36.2078 315.743 36.2078H316.209V86.2841C316.209 87.8146 317.485 88.1665 324.356 88.1665H327.849C334.25 88.1665 336.114 87.8146 336.114 86.2841V1.88229C336.114 0.589156 334.25 -0.00012207 327.849 -0.00012207ZM228.568 1.88229C228.568 0.589156 226.769 -0.00012207 220.595 -0.00012207H216.997C210.482 -0.00012207 209.364 0.589156 209.364 1.88229V86.2841C209.364 87.8146 210.482 88.1665 216.997 88.1665H220.595C226.773 88.1665 228.568 87.8146 228.568 86.2841V1.88229ZM195.693 -0.00012207C197.475 -0.00012207 197.841 0.237226 197.841 6.46557V12.2274C197.841 18.2225 197.363 18.9263 195.693 18.9263H175.398V86.2841C175.398 87.8146 173.487 88.1665 166.685 88.1665H163.103C156.18 88.1665 154.988 87.8146 154.988 86.2841V18.9263H134.694C133.019 18.9263 132.545 18.4557 132.545 12.2274V6.46557C132.545 -0.00012207 132.903 -0.00012207 134.694 -0.00012207H195.693Z"/>
</mask>
<path fill-rule="evenodd" clip-rule="evenodd" d="M327.849 -0.00012207H322.027C314.58 -0.00012207 314.11 0.822412 313.535 2.11555L302.013 30.094C298.172 39.3792 294.21 49.3724 292.699 54.5449C291.301 49.3724 288.745 42.4361 283.389 29.6234L271.87 2.11555C271.17 0.470482 268.261 -0.00012207 261.973 -0.00012207H255.458C249.057 -0.00012207 247.773 0.589156 247.773 1.88229V86.2841C247.773 87.8146 249.057 88.1665 255.689 88.1665H259.299C265.814 88.1665 267.673 87.8146 267.673 86.2841V36.2078H268.143C268.143 36.2078 268.722 38.5567 269.658 40.6724L282.927 72.0596C283.506 73.4714 284.207 74.0648 290.373 74.0648H294.331C300.611 74.0648 301.081 73.5901 301.664 72.0596L313.762 41.8509C314.929 39.0273 315.743 36.2078 315.743 36.2078H316.209V86.2841C316.209 87.8146 317.485 88.1665 324.356 88.1665H327.849C334.25 88.1665 336.114 87.8146 336.114 86.2841V1.88229C336.114 0.589156 334.25 -0.00012207 327.849 -0.00012207ZM228.568 1.88229C228.568 0.589156 226.769 -0.00012207 220.595 -0.00012207H216.997C210.482 -0.00012207 209.364 0.589156 209.364 1.88229V86.2841C209.364 87.8146 210.482 88.1665 216.997 88.1665H220.595C226.773 88.1665 228.568 87.8146 228.568 86.2841V1.88229ZM195.693 -0.00012207C197.475 -0.00012207 197.841 0.237226 197.841 6.46557V12.2274C197.841 18.2225 197.363 18.9263 195.693 18.9263H175.398V86.2841C175.398 87.8146 173.487 88.1665 166.685 88.1665H163.103C156.18 88.1665 154.988 87.8146 154.988 86.2841V18.9263H134.694C133.019 18.9263 132.545 18.4557 132.545 12.2274V6.46557C132.545 -0.00012207 132.903 -0.00012207 134.694 -0.00012207H195.693Z" stroke="#C6205C" stroke-width="2" mask="url(#path-2-inside-1_0_1)"/>
</g>
<defs>
<clipPath id="clip0_0_1">
<rect width="338" height="92" fill="white"/>
</clipPath>
</defs>
</svg>
