<svg width="110" height="159" viewBox="0 0 110 159" fill="none" xmlns="http://www.w3.org/2000/svg">
<g clip-path="url(#clip0_341_18)">
<path d="M42.752 65.304L20.576 107.064C17.12 113.4 15.392 117.144 15.392 122.328C15.392 130.68 21.728 137.016 30.08 137.016C38.72 137.016 46.208 130.104 46.208 120.6C46.208 114.84 43.04 109.656 38.144 107.352L56.576 65.304H42.752ZM87.104 107.352L105.536 65.304H91.712L69.536 107.064C66.08 113.4 64.352 117.144 64.352 122.328C64.352 130.68 70.688 137.016 79.04 137.016C87.68 137.016 95.168 130.104 95.168 120.6C95.168 114.84 92 109.656 87.104 107.352Z" fill="#BBD3F7" fill-opacity="0.08"/>
<path d="M42.752 65.304V63.304H41.5496L40.9856 64.366L42.752 65.304ZM20.576 107.064L22.3318 108.022L22.3371 108.012L22.3424 108.002L20.576 107.064ZM38.144 107.352L36.3123 106.549L35.5305 108.332L37.2924 109.162L38.144 107.352ZM56.576 65.304L58.4077 66.1069L59.6364 63.304H56.576V65.304ZM87.104 107.352L85.2723 106.549L84.4905 108.332L86.2524 109.162L87.104 107.352ZM105.536 65.304L107.368 66.1069L108.596 63.304H105.536V65.304ZM91.712 65.304V63.304H90.5096L89.9456 64.366L91.712 65.304ZM69.536 107.064L71.2918 108.022L71.2972 108.012L71.3024 108.002L69.536 107.064ZM40.9856 64.366L18.8096 106.126L22.3424 108.002L44.5184 66.242L40.9856 64.366ZM18.8202 106.106C15.3597 112.451 13.392 116.59 13.392 122.328H17.392C17.392 117.698 18.8803 114.349 22.3318 108.022L18.8202 106.106ZM13.392 122.328C13.392 131.785 20.6234 139.016 30.08 139.016V135.016C22.8326 135.016 17.392 129.575 17.392 122.328H13.392ZM30.08 139.016C39.8014 139.016 48.208 131.232 48.208 120.6H44.208C44.208 128.976 37.6386 135.016 30.08 135.016V139.016ZM48.208 120.6C48.208 114.124 44.6438 108.2 38.9956 105.542L37.2924 109.162C41.4362 111.112 44.208 115.556 44.208 120.6H48.208ZM39.9757 108.155L58.4077 66.1069L54.7443 64.501L36.3123 106.549L39.9757 108.155ZM56.576 63.304H42.752V67.304H56.576V63.304ZM88.9357 108.155L107.368 66.1069L103.704 64.501L85.2723 106.549L88.9357 108.155ZM105.536 63.304H91.712V67.304H105.536V63.304ZM89.9456 64.366L67.7696 106.126L71.3024 108.002L93.4784 66.242L89.9456 64.366ZM67.7802 106.106C64.3197 112.451 62.352 116.59 62.352 122.328H66.352C66.352 117.698 67.8403 114.349 71.2918 108.022L67.7802 106.106ZM62.352 122.328C62.352 131.785 69.5834 139.016 79.04 139.016V135.016C71.7926 135.016 66.352 129.575 66.352 122.328H62.352ZM79.04 139.016C88.7614 139.016 97.168 131.232 97.168 120.6H93.168C93.168 128.976 86.5986 135.016 79.04 135.016V139.016ZM97.168 120.6C97.168 114.124 93.6038 108.2 87.9556 105.542L86.2524 109.162C90.3962 111.112 93.168 115.556 93.168 120.6H97.168Z" fill="#C663C6"/>
</g>
<defs>
<clipPath id="clip0_341_18">
<rect width="110" height="159" fill="white"/>
</clipPath>
</defs>
</svg>
